<?xml version="1.0" encoding="utf-8"?>
<!-- Svg Vector Icons : http://www.onlinewebfonts.com/icon -->
<!DOCTYPE svg PUBLIC "-//W3C//DTD SVG 1.1//EN" "http://www.w3.org/Graphics/SVG/1.1/DTD/svg11.dtd">
<svg version="1.1" xmlns="http://www.w3.org/2000/svg" xmlns:xlink="http://www.w3.org/1999/xlink" x="0px" y="0px" viewBox="0 0 1000 1000" enable-background="new 0 0 1000 1000" xml:space="preserve">
<metadata> Svg Vector Icons : http://www.onlinewebfonts.com/icon </metadata>
<g><g><path d="M958.2,469L518.9,908.3c-109,109-286.4,109-395.4,0c-109-109-109-286.4,0-395.4L562.8,73.6c84.8-84.8,222.7-84.8,307.6,0c84.8,84.8,84.8,222.7,0,307.5L519.6,731.8c-29.2,29.7-68.2,46.1-110,46.2c-83.3,0.4-156.2-72.4-155.9-155.9c0.1-41.6,16.6-80.7,46.2-109.9l350.7-350.7l43.9,43.9L343.2,556.8c-17.5,17.5-27.2,40.7-27.3,65.5c-0.2,50.1,43.5,93.8,93.6,93.6c24.8-0.1,48.1-9.8,65.6-27.3l351.5-351.4c60.6-60.5,60.6-159.1,0-219.6c-60.6-60.5-159.1-60.5-219.7,0L167.5,556.8c-84.8,84.8-84.8,222.7,0,307.5c84.8,84.8,222.7,84.8,307.5,0L914.3,425L958.2,469z"/></g><g></g><g></g><g></g><g></g><g></g><g></g><g></g><g></g><g></g><g></g><g></g><g></g><g></g><g></g><g></g></g>
</svg>